<?xml version="1.0" encoding="utf-8"?>
<!-- Generator: Adobe Illustrator 22.1.0, SVG Export Plug-In . SVG Version: 6.00 Build 0)  -->
<svg version="1.1" id="Layer_1" xmlns="http://www.w3.org/2000/svg" xmlns:xlink="http://www.w3.org/1999/xlink" x="0px" y="0px"
	 viewBox="0 0 13 13" style="enable-background:new 0 0 13 13;" xml:space="preserve">
<style type="text/css">
	.st0{fill:#F6881F;}
	.st1{fill:#FFFFFF;}
</style>
<path class="st0" d="M11,2C8.6-0.5,4.6-0.5,2,2s-2.5,6.5,0,9s6.5,2.5,9,0C13.5,8.5,13.5,4.5,11,2z"/>
<path class="st1" d="M6.5,13c-1.7,0-3.3-0.7-4.6-1.9C0.7,9.8,0,8.1,0,6.4C0.1,4.7,0.7,3.1,2,2c2.6-2.5,6.6-2.5,9.1,0l0,0
	c2.5,2.5,2.5,6.5,0,9.1C9.9,12.3,8.2,13,6.5,13z M6.6,0.6C5,0.6,3.5,1.1,2.3,2.3C1.2,3.4,0.5,4.8,0.5,6.4c0,1.6,0.6,3.2,1.8,4.3
	c1.1,1.1,2.6,1.7,4.2,1.7s3.1-0.6,4.2-1.7c2.3-2.4,2.3-6.1,0-8.4C9.6,1.1,8.1,0.6,6.6,0.6z"/>
<path class="st1" d="M7.7,11.3H5.6c-0.2,0-0.3-0.1-0.3-0.3V9.3C5.3,9.1,5.4,9,5.6,9h2.1C7.8,9,8,9.1,8,9.3c0,0,0,1.5,0,1.7
	C8,11.1,7.9,11.3,7.7,11.3z"/>
<path class="st1" d="M8,4.9C8,5,7.4,7.6,7.4,7.6C7.3,7.9,7.1,8.1,6.8,8.1H6.3c-0.2,0-0.4-0.2-0.5-0.5L5.2,4.9V2.5
	C5.2,2.3,5.4,2,5.7,2h1.8C7.8,2,8,2.2,8,2.5C8,2.5,8,4.9,8,4.9z"/>
</svg>
