<?xml version="1.0" encoding="utf-8"?>
<!-- Generator: Adobe Illustrator 22.1.0, SVG Export Plug-In . SVG Version: 6.00 Build 0)  -->
<svg version="1.1" id="Layer_1" xmlns="http://www.w3.org/2000/svg" xmlns:xlink="http://www.w3.org/1999/xlink" x="0px" y="0px"
	 viewBox="0 0 13 13" style="enable-background:new 0 0 13 13;" xml:space="preserve">
<style type="text/css">
	.st0{fill:#0099C4;}
	.st1{fill:#FFFFFF;}
</style>
<path class="st0" d="M11,2C8.6-0.5,4.6-0.5,2,2s-2.5,6.5,0,9s6.5,2.5,9,0S13.5,4.5,11,2z"/>
<path class="st1" d="M6.5,13c-1.7,0-3.3-0.7-4.6-1.9C0.7,9.8,0,8.1,0,6.4C0.1,4.7,0.7,3.1,2,2c2.6-2.5,6.6-2.5,9.1,0l0,0
	c2.5,2.5,2.5,6.5,0,9.1C9.9,12.3,8.2,13,6.5,13z M6.6,0.6C5,0.6,3.5,1.1,2.3,2.3C1.2,3.4,0.5,4.8,0.5,6.4s0.6,3.2,1.8,4.3
	c1.1,1.1,2.6,1.7,4.2,1.7s3.1-0.6,4.2-1.7c2.3-2.4,2.3-6.1,0-8.4C9.6,1.1,8.1,0.6,6.6,0.6z"/>
<rect x="5.7" y="1.7" class="st1" width="2.1" height="2.1"/>
<polygon class="st1" points="8.9,10.7 4.6,10.7 4.6,9.6 5.7,9.6 5.7,6 4.6,6 4.6,4.9 7.8,4.9 7.8,6 7.8,9.6 8.9,9.6 "/>
</svg>
