<svg xmlns="http://www.w3.org/2000/svg" xmlns:xlink="http://www.w3.org/1999/xlink" version="1.1" id="Layer_1" x="0px" y="0px" width="23.495px" height="23.495px" viewBox="0 0 23.495 23.495" enable-background="new 0 0 23.495 23.495" xml:space="preserve"><g id="search_1_"><path fill="#606060" d="M23.347 20.505l-5.878-5.879c0.956-1.481 1.521-3.24 1.521-5.132C18.99 4.3 14.7 0 9.5 0 C4.258 0 0 4.3 0 9.494c0 5.2 4.3 9.5 9.5 9.495c1.891 0 3.649-0.562 5.132-1.52l5.878 5.9 c0.195 0.2 0.5 0.2 0.7 0l2.132-2.132C23.544 21 23.5 20.7 23.3 20.505z M3.015 9.5 c0-3.571 2.906-6.479 6.479-6.479s6.479 2.9 6.5 6.479c0 3.573-2.904 6.479-6.479 6.479C5.921 16 3 13.1 3 9.5 z"/></g></svg>
