<?xml version="1.0" encoding="utf-8"?>
<svg version="1.1" id="Layer_1" xmlns="http://www.w3.org/2000/svg" xmlns:xlink="http://www.w3.org/1999/xlink" x="0px" y="0px"
	 viewBox="38 255.6 518 100.7" xml:space="preserve">
<g>
	<path fill="#FFFFFF" d="M154.9,279c-2.6,0-3.6-1.3-3.6-3.6v-10.8H149V263h2.3v-4.2h1.9v4.2h4v1.6h-4v10.7c0,1.4,0.5,2.2,2.2,2.2
		c0.7,0,1.3-0.1,1.8-0.3l0.1,1.5C156.6,278.9,155.6,279,154.9,279z M173.9,278.8V268c0-3.3-1.6-5.3-5.1-5.3c-2.7,0-4.6,1.5-5.5,3.9
		v-10h-1.9v22.1h1.9v-8.3c0-3.8,2.4-6.1,5.1-6.1c2.5,0,3.7,1.4,3.7,4v10.4H173.9z M190.7,271.4h-11.2c0.1,3.8,1.6,6.2,5.8,6.2
		c1.8,0,3.5-0.4,4.9-1l0.3,1.3c-1.3,0.6-3.3,1.1-5.4,1.1c-5.3,0-7.4-3.4-7.4-8.2c0-5,2.3-8.2,7-8.2c4.4,0,6,3.2,6,7.2L190.7,271.4
		L190.7,271.4z M188.9,269.6c0-3.1-1.1-5.6-4.3-5.6s-4.9,2-5.1,6h9.3v-0.4H188.9z M232.1,278.8V268c0-3.3-1.6-5.3-5.1-5.3
		c-2.7,0-4.6,1.5-5.6,3.9V263h-1.8v15.7h1.9v-8.3c0-3.8,2.4-6.1,5.1-6.1c2.5,0,3.7,1.4,3.7,4v10.4H232.1z M246.9,274.5
		c0-2.8-2.1-3.7-5.3-4.6c-2.8-0.8-4.1-1.3-4.1-3.1c0-1.9,1.4-2.7,3.8-2.7c1.7,0,3.3,0.4,4.6,1l0.4-1.4c-1.3-0.6-3-1-5-1
		c-3.6,0-5.6,1.4-5.6,4.3c0,2.5,1.7,3.6,5.4,4.6c2.8,0.7,4,1.4,4,3.2c0,1.8-1.3,2.9-3.8,2.9c-1.8,0-3.5-0.5-5.1-1.2l-0.5,1.4
		c1.8,0.8,3.8,1.2,5.6,1.2C244.9,279.1,246.9,277.4,246.9,274.5z M260.9,263h-2l-4.2,13.4l-3.8-13.4h-1.8l4.7,15.7h1.8l4.3-14
		l4.3,14h1.8l4.7-15.7h-1.8l-3.8,13.4L260.9,263z M285.4,271.4h-11.1c0.1,3.8,1.6,6.2,5.8,6.2c1.8,0,3.5-0.4,4.9-1l0.3,1.3
		c-1.3,0.6-3.3,1.1-5.4,1.1c-5.3,0-7.4-3.4-7.4-8.2c0-5,2.3-8.2,7-8.2c4.4,0,6,3.2,6,7.2L285.4,271.4L285.4,271.4z M283.7,269.6
		c0-3.1-1.1-5.6-4.3-5.6c-3.2,0-4.9,2-5.1,6h9.3v-0.4H283.7z M297.4,264.6V263c-0.4-0.1-0.9-0.2-1.4-0.2c-2.7,0-4.2,1.8-4.8,4V263
		h-1.9v15.7h1.9v-8.3c0-3.1,1.6-5.9,4.9-5.9C296.6,264.5,296.9,264.6,297.4,264.6z M318.2,263.6c-1-0.6-2.7-0.9-4.4-0.9
		c-4.7,0-7.3,3-7.3,8.2s2.6,8.2,7.3,8.2c1.6,0,3.3-0.4,4.4-0.9l-0.3-1.4c-1,0.4-2.3,0.8-3.8,0.8c-4.1,0-5.6-2.7-5.6-6.6
		s1.6-6.7,5.6-6.7c1.5,0,2.8,0.3,3.8,0.8L318.2,263.6z M334.2,270.9c0,4.6-2.3,8.2-6.9,8.2s-6.9-3.6-6.9-8.2c0-4.7,2.3-8.2,6.9-8.2
		C331.9,262.8,334.2,266.2,334.2,270.9z M332.3,270.9c0-4-1.6-6.7-5-6.7s-5,2.7-5,6.7s1.6,6.6,5,6.6
		C330.7,277.5,332.3,274.9,332.3,270.9z M349.9,278.8v-8.6c0-3.6,2.1-5.8,4.6-5.8s3.7,1.4,3.7,4v10.4h1.9V268c0-3.2-1.6-5.3-5.1-5.3
		c-2.7,0-4.5,1.6-5.3,3.9c-0.4-2.4-1.9-3.9-4.8-3.9c-2.6,0-4.3,1.5-5.2,3.9V263h-1.8v15.7h1.9v-8.3c0-3.8,2-6.1,4.6-6.1
		c2.4,0,3.7,1.4,3.7,4v10.4H349.9z M378.4,270.9c0,4.5-1.9,8.2-6.3,8.2c-2.6,0-4.5-1.4-5.5-3.7v9.3h-1.9V263h1.8v3.4
		c1-2.3,3-3.7,5.6-3.7C376.5,262.8,378.4,266.3,378.4,270.9z M376.5,270.9c0-3.8-1.4-6.7-4.8-6.7c-3.5,0-5.2,3.2-5.2,6.7
		c0,3.4,1.7,6.6,5.2,6.6S376.5,274.8,376.5,270.9z M214.7,263v15.7h-1.9v-3.4c-1,2.3-2.9,3.7-5.5,3.7c-4.4,0-6.3-3.7-6.3-8.2
		c0-4.6,1.9-8.2,6.3-8.2c2.6,0,4.6,1.4,5.6,3.7V263H214.7z M212.8,270.9c0-3.5-1.7-6.7-5.2-6.7c-3.4,0-4.8,2.9-4.8,6.7
		c0,3.8,1.4,6.6,4.8,6.6C211.1,277.5,212.8,274.3,212.8,270.9z M395,263v15.7h-1.9v-3.4c-1,2.3-2.9,3.7-5.5,3.7
		c-4.4,0-6.3-3.7-6.3-8.2c0-4.6,1.9-8.2,6.3-8.2c2.6,0,4.6,1.4,5.6,3.7V263H395z M393.1,270.9c0-3.5-1.7-6.7-5.2-6.7
		c-3.4,0-4.8,2.9-4.8,6.7c0,3.8,1.4,6.6,4.8,6.6C391.4,277.5,393.1,274.3,393.1,270.9z M412.1,278.8V268c0-3.3-1.6-5.3-5.1-5.3
		c-2.7,0-4.6,1.5-5.6,3.9V263h-1.8v15.7h1.9v-8.3c0-3.8,2.4-6.1,5.1-6.1c2.5,0,3.7,1.4,3.7,4v10.4H412.1z M421,276.8l-4.7-13.7h-1.9
		l5.7,15.7l-2,5.9h1.8l7.6-21.6h-2L421,276.8z M435.9,264.1h-1.8v5.3c0,0.1-0.1,0.2-0.2,0.2H433c-0.1,0-0.2-0.1-0.2-0.2v-5.3H431
		c-0.1,0-0.2-0.1-0.2-0.2v-0.7c0-0.1,0.1-0.2,0.2-0.2h5c0.1,0,0.2,0.1,0.2,0.2v0.7C436.1,264,436,264.1,435.9,264.1z M443.6,269.6
		h-0.9c-0.1,0-0.1-0.1-0.1-0.2v-4c0-0.1,0-0.1,0-0.1s0,0,0,0.1l-1.5,3.3c-0.1,0.1-0.2,0.2-0.3,0.2h-0.5c-0.1,0-0.2-0.1-0.3-0.2
		l-1.5-3.3l-0.1-0.1c0,0,0,0,0,0.1v4c0,0.1-0.1,0.2-0.1,0.2h-0.9c-0.1,0-0.2,0-0.2-0.1v-6c0-0.2,0.2-0.4,0.4-0.4h0.8
		c0.2,0,0.3,0.1,0.3,0.2l1.8,3.6c0,0.1,0.1,0.1,0.1,0.1s0.1,0,0.1-0.1l1.8-3.6c0.1-0.1,0.2-0.2,0.3-0.2h0.8c0.2,0,0.4,0.2,0.4,0.4v6
		C443.7,269.5,443.7,269.6,443.6,269.6z M121.5,317c0-2.4-2-4.4-4.4-4.4s-4.4,2-4.4,4.4s2,4.4,4.4,4.4
		C119.5,321.5,121.5,319.5,121.5,317z M119,304c-0.7-2-2.8-3.1-4.8-2.4s-3.1,2.8-2.4,4.8c0.7,2,2.8,3.1,4.8,2.4
		C118.6,308.2,119.6,306,119,304z M113.2,294c-1-1.5-3-1.8-4.5-0.8s-1.8,3-0.8,4.5s3,1.9,4.5,0.8C113.8,297.5,114.2,295.5,113.2,294
		z M105.1,286.4c-1.2-1-2.9-0.8-3.9,0.4c-1,1.2-0.8,3,0.4,3.9c1.2,1,3,0.8,3.9-0.4S106.3,287.4,105.1,286.4z M96.1,281.8
		c-1.1-0.5-2.5,0-3,1.1s0,2.5,1.1,3s2.5,0,3-1.1C97.8,283.6,97.3,282.3,96.1,281.8z M87.6,279.5c-1.1-0.2-2.1,0.4-2.3,1.5
		c-0.2,1.1,0.5,2.1,1.5,2.3c1.1,0.2,2.1-0.4,2.3-1.5C89.4,280.8,88.7,279.8,87.6,279.5z M79.8,278.9c-0.9,0-1.7,0.8-1.7,1.7
		c0,0.9,0.7,1.7,1.7,1.7c0.9,0,1.7-0.8,1.7-1.7C81.4,279.6,80.7,278.9,79.8,278.9z M46.8,317c0-2.4-2-4.4-4.4-4.4s-4.4,2-4.4,4.4
		s2,4.4,4.4,4.4C44.9,321.5,46.8,319.5,46.8,317z M47.8,327.6c-0.7-2-2.8-3.1-4.8-2.4s-3.1,2.8-2.4,4.8c0.7,2,2.8,3.1,4.8,2.4
		C47.4,331.8,48.5,329.8,47.8,327.6z M51.7,336.4c-1-1.5-3-1.8-4.5-0.8s-1.8,3-0.8,4.5s3.1,1.8,4.5,0.8
		C52.4,339.9,52.7,337.8,51.7,336.4z M58,343.4c-1.2-1-3-0.8-3.9,0.4c-1,1.2-0.8,3,0.4,3.9c1.2,1,3,0.8,4-0.4
		C59.4,346.1,59.2,344.4,58,343.4z M65.3,348.2c-1.1-0.5-2.5,0-3,1.1s0,2.5,1.1,3s2.5,0,3-1.1S66.4,348.8,65.3,348.2z M72.7,350.8
		c-1.1-0.2-2.1,0.5-2.3,1.5c-0.2,1.1,0.5,2.1,1.5,2.3c1,0.2,2.1-0.4,2.3-1.5C74.4,352.1,73.8,351,72.7,350.8z M79.8,351.9
		c-0.9,0-1.7,0.8-1.7,1.7c0,0.9,0.7,1.7,1.7,1.7c0.9,0,1.7-0.8,1.7-1.7C81.5,352.6,80.7,351.9,79.8,351.9z M43,308.9
		c2,0.7,4.2-0.4,4.8-2.4c0.7-2-0.4-4.2-2.4-4.8c-2-0.7-4.2,0.4-4.8,2.4C39.9,306,41,308.2,43,308.9z M47.2,298.5
		c1.5,1,3.5,0.6,4.5-0.8c1-1.5,0.6-3.5-0.8-4.5c-1.5-1-3.5-0.6-4.5,0.8C45.3,295.5,45.7,297.5,47.2,298.5z M54.1,290.3
		c1,1.2,2.7,1.4,3.9,0.4c1.2-1,1.4-2.7,0.4-3.9c-1-1.2-2.7-1.4-3.9-0.4C53.3,287.3,53.1,289.1,54.1,290.3z M62.3,284.8
		c0.5,1.1,1.9,1.6,3,1.1s1.6-1.9,1.1-3s-1.9-1.6-3-1.1S61.8,283.6,62.3,284.8z M70.4,281.8c0.2,1.1,1.3,1.7,2.3,1.5
		c1.1-0.2,1.7-1.2,1.5-2.3c-0.2-1.1-1.3-1.7-2.3-1.5C70.8,279.8,70.2,280.8,70.4,281.8z M114.2,332.5c2,0.7,4.2-0.4,4.8-2.4
		c0.7-2-0.4-4.2-2.4-4.8c-2-0.7-4.2,0.4-4.8,2.4C111.1,329.8,112.2,331.8,114.2,332.5z M108.7,340.9c1.5,1,3.5,0.6,4.5-0.8
		c1-1.5,0.6-3.5-0.8-4.5c-1.5-1-3.5-0.7-4.5,0.8C106.8,337.8,107.2,339.9,108.7,340.9z M101.1,347.3c1,1.2,2.8,1.4,3.9,0.4
		c1.2-1,1.4-2.7,0.4-3.9c-1-1.2-2.7-1.4-3.9-0.4C100.3,344.4,100.1,346.1,101.1,347.3z M93.1,351.2c0.5,1.2,1.9,1.6,3,1.1
		s1.6-1.9,1.1-3s-1.9-1.6-3-1.1S92.6,350.1,93.1,351.2z M85.3,353.1c0.2,1.1,1.3,1.8,2.3,1.5c1.1-0.2,1.7-1.3,1.5-2.3
		c-0.2-1.1-1.3-1.7-2.3-1.5C85.8,351,85.1,352,85.3,353.1z M107.8,301.8c-0.9-1.6-2.9-2.2-4.6-1.4c-1.6,0.9-2.2,3-1.4,4.6
		c0.9,1.6,2.9,2.3,4.6,1.4S108.7,303.4,107.8,301.8z M101.4,293.9c-1.3-1.2-3.2-1.1-4.4,0.1c-1.2,1.3-1.1,3.2,0.2,4.4
		c1.3,1.2,3.2,1.1,4.4-0.1C102.8,297,102.7,295,101.4,293.9z M93.6,289.1c-1.3-0.7-2.9-0.1-3.6,1.2c-0.6,1.3-0.1,2.9,1.2,3.5
		c1.3,0.6,2.9,0.1,3.6-1.2C95.5,291.3,94.9,289.8,93.6,289.1z M85.6,287.1c-1.2-0.2-2.4,0.6-2.6,1.8c-0.2,1.2,0.6,2.4,1.8,2.6
		c1.2,0.2,2.4-0.6,2.6-1.8C87.6,288.5,86.8,287.4,85.6,287.1z M77.9,287.4c-0.9,0.1-1.7,0.9-1.6,1.8s0.9,1.7,1.8,1.6
		c1-0.1,1.7-0.9,1.6-1.9C79.6,288.1,78.8,287.4,77.9,287.4z M71.3,289c-0.8,0.2-1.2,1.1-1,1.9s1.1,1.2,1.8,1c0.8-0.2,1.2-1.1,1-1.9
		C72.9,289.2,72.1,288.8,71.3,289z M65.8,291.4c-0.6,0.3-0.9,1.1-0.5,1.7c0.3,0.6,1.1,0.9,1.7,0.5c0.6-0.3,0.9-1.1,0.5-1.7
		C67.2,291.3,66.4,291.1,65.8,291.4z M57.7,329.1c-0.9-1.6-2.9-2.2-4.6-1.3c-1.6,0.9-2.2,2.9-1.3,4.6c0.9,1.6,2.9,2.3,4.6,1.4
		C58,332.8,58.6,330.8,57.7,329.1z M62.4,335.8c-1.3-1.2-3.2-1.1-4.4,0.1c-1.2,1.3-1.1,3.2,0.1,4.4c1.3,1.2,3.2,1.1,4.4-0.1
		C63.7,338.8,63.6,336.8,62.4,335.8z M68.1,340.1c-1.3-0.6-2.9-0.1-3.6,1.2c-0.6,1.3-0.1,2.9,1.2,3.6c1.3,0.6,2.9,0.1,3.6-1.2
		C69.9,342.4,69.4,340.8,68.1,340.1z M74.8,342.6c-1.2-0.2-2.4,0.6-2.6,1.8c-0.2,1.2,0.6,2.4,1.8,2.7c1.2,0.2,2.4-0.6,2.6-1.8
		C76.9,344,76,342.8,74.8,342.6z M81.4,343.2c-1,0-1.7,0.9-1.6,1.8c0.1,1,0.9,1.7,1.8,1.6s1.7-0.9,1.6-1.8
		C83.2,343.9,82.4,343.2,81.4,343.2z M87.4,342.3c-0.8,0.2-1.2,1.1-1,1.8c0.2,0.8,1.1,1.2,1.9,1s1.2-1.1,1-1.9
		C89,342.5,88.2,342,87.4,342.3z M92.5,340.4c-0.6,0.3-0.8,1.1-0.5,1.7s1.1,0.8,1.7,0.5s0.9-1.1,0.5-1.7
		C93.9,340.3,93.1,340,92.5,340.4z M52.1,324.8c1.5-0.3,2.4-1.6,2.1-3.1c-0.3-1.4-1.6-2.4-3.1-2.1c-1.4,0.3-2.4,1.6-2.1,3.1
		C49.2,324,50.6,325,52.1,324.8z M51.2,316.2c1.2,0.1,2.3-0.7,2.4-1.9c0.1-1.2-0.8-2.3-2-2.4s-2.2,0.7-2.4,1.9
		C49.1,315,50,316.1,51.2,316.2z M52.8,308.4c1,0.4,2.2-0.1,2.7-1.2c0.4-1-0.1-2.2-1.1-2.7c-1.1-0.4-2.2,0.1-2.7,1.1
		C51.3,306.8,51.8,308,52.8,308.4z M56.3,301.8c0.8,0.6,1.9,0.4,2.4-0.4c0.6-0.8,0.4-1.8-0.3-2.4c-0.8-0.6-1.9-0.4-2.4,0.3
		C55.3,300.1,55.5,301.2,56.3,301.8z M60.6,296.8c0.6,0.6,1.5,0.7,2.1,0.2c0.6-0.6,0.7-1.5,0.2-2.1s-1.5-0.7-2.1-0.2
		C60.1,295.3,60.1,296.2,60.6,296.8z M108.4,314.6c1.4-0.2,2.4-1.6,2.1-3.1c-0.2-1.4-1.6-2.4-3.1-2.1c-1.4,0.3-2.4,1.6-2.1,3.1
		C105.6,313.9,107,314.9,108.4,314.6z M107.9,322.2c1.2,0.1,2.3-0.7,2.4-1.9c0.1-1.2-0.7-2.3-1.9-2.4c-1.2-0.1-2.3,0.7-2.4,1.9
		C105.8,321,106.7,322.1,107.9,322.2z M105.2,329.5c1.1,0.4,2.3-0.1,2.7-1.1c0.4-1.1-0.1-2.2-1.1-2.7c-1-0.4-2.2,0.1-2.7,1.1
		C103.6,327.9,104.1,329.1,105.2,329.5z M101.2,335.1c0.8,0.6,1.9,0.4,2.4-0.4c0.6-0.8,0.4-1.8-0.3-2.4c-0.8-0.6-1.9-0.4-2.4,0.4
		C100.3,333.4,100.4,334.5,101.2,335.1z M96.6,339.2c0.5,0.6,1.5,0.7,2.1,0.2s0.7-1.5,0.2-2.1s-1.5-0.7-2.1-0.2
		S96.1,338.6,96.6,339.2z M96.3,300.6c-1.3-1.2-3.2-1.3-4.5,0c-1.2,1.2-1.2,3.2,0,4.4c1.2,1.2,3.2,1.3,4.5,0
		C97.5,303.8,97.6,301.8,96.3,300.6z M88.4,295.8c-1.4-0.6-3.1,0.1-3.7,1.5s0.1,3.2,1.6,3.7c1.5,0.6,3.1-0.1,3.7-1.6
		C90.5,297.9,89.8,296.3,88.4,295.8z M79.8,294.8c-1.4,0-2.5,1.1-2.5,2.5c0,1.3,1.1,2.5,2.5,2.5c1.3,0,2.5-1.1,2.5-2.5
		C82.3,295.8,81.2,294.8,79.8,294.8z M71.6,297.2c-1,0.4-1.4,1.5-1,2.4c0.4,1,1.5,1.4,2.5,1.1c1-0.4,1.4-1.5,1-2.5
		C73.6,297.2,72.5,296.8,71.6,297.2z M67.6,329.1c-1.2-1.2-3.2-1.2-4.4,0c-1.3,1.3-1.3,3.2-0.1,4.5c1.3,1.2,3.2,1.2,4.5,0
		C68.8,332.3,68.8,330.3,67.6,329.1z M73.2,333.2c-1.5-0.6-3.1,0.1-3.7,1.6c-0.6,1.4,0.2,3.1,1.6,3.7s3.1-0.1,3.7-1.5
		C75.4,335.4,74.7,333.8,73.2,333.2z M79.7,334.5c-1.4,0-2.5,1.1-2.5,2.5s1.1,2.5,2.5,2.5s2.5-1.1,2.5-2.5S81.1,334.5,79.7,334.5z
		 M86.5,333.5c-0.9,0.4-1.4,1.4-1,2.4c0.4,0.9,1.5,1.4,2.4,1s1.4-1.5,1-2.4C88.5,333.5,87.4,333.1,86.5,333.5z M61.8,326.9
		c1.4-0.5,2.1-2,1.5-3.5c-0.5-1.4-2.1-2-3.4-1.5c-1.4,0.5-2,2.1-1.5,3.4C59,326.8,60.5,327.4,61.8,326.9z M59.8,318.8
		c1.1,0,2-0.9,2.1-2c0-1.1-0.9-2-2-2.1c-1.2,0-2.1,0.9-2.1,2C57.7,317.8,58.7,318.8,59.8,318.8z M61,311.1c0.9,0.3,1.9-0.1,2.3-0.9
		c0.4-0.9-0.1-1.9-0.9-2.3c-0.9-0.4-1.9,0.1-2.2,0.9C59.7,309.8,60.1,310.8,61,311.1z M99.5,312.2c1.4-0.5,2-2.1,1.5-3.4
		s-2-2-3.4-1.5s-2.1,2.1-1.5,3.4C96.6,312.1,98.2,312.8,99.5,312.2z M99.6,319.5c1.1,0,2.1-0.9,2.1-2s-0.9-2.1-2-2.1s-2.1,0.9-2.1,2
		S98.5,319.4,99.6,319.5z M97.1,326.2c0.9,0.4,1.9-0.1,2.3-0.9c0.4-0.9-0.1-1.9-0.9-2.2c-0.9-0.4-1.9,0-2.2,0.9
		C95.9,324.8,96.3,325.9,97.1,326.2z M64.7,304.4c0.7,0.7,1.8,0.7,2.4,0s0.7-1.7,0-2.4c-0.7-0.7-1.8-0.7-2.4,0
		C64.1,302.6,64.1,303.8,64.7,304.4z M92.3,332.2c0.7,0.7,1.8,0.7,2.4,0c0.7-0.6,0.7-1.7,0-2.4c-0.6-0.7-1.8-0.7-2.4,0
		C91.7,330.4,91.7,331.5,92.3,332.2z M76.6,302.6c-1.4,0.3-2.2,1.6-1.9,2.9c0.3,1.3,1.6,2.2,3,1.9c1.3-0.3,2.1-1.6,1.9-2.9
		C79.2,303.1,77.8,302.3,76.6,302.6z M69.4,306.6c-0.9,0.9-0.9,2.4,0,3.3s2.4,0.9,3.4,0c0.9-0.9,0.9-2.4,0-3.3
		C71.8,305.8,70.3,305.8,69.4,306.6z M66.4,313.5c-0.2,0.9,0.3,1.7,1.1,2c0.8,0.2,1.7-0.3,1.9-1.1c0.2-0.8-0.3-1.7-1.1-1.9
		C67.5,312.2,66.7,312.8,66.4,313.5z M82,326.9c-1.3,0.3-2.2,1.6-1.8,2.9c0.3,1.3,1.6,2.2,2.9,1.9c1.3-0.3,2.1-1.6,1.9-2.9
		C84.6,327.4,83.3,326.6,82,326.9z M86.9,324.3c-0.9,0.9-0.9,2.4,0,3.4c0.9,0.9,2.4,0.9,3.3,0c1-0.9,1-2.4,0.1-3.3
		C89.3,323.4,87.8,323.4,86.9,324.3z M90.1,319.9c-0.2,0.9,0.2,1.7,1.1,2c0.9,0.2,1.7-0.3,2-1.1c0.2-0.8-0.3-1.7-1.1-1.9
		C91.2,318.5,90.3,319.1,90.1,319.9z M86.2,306.2c0.4-1.1-0.1-2.4-1.3-2.8c-1.2-0.4-2.4,0.1-2.8,1.3c-0.4,1.1,0.2,2.3,1.3,2.8
		C84.6,307.9,85.8,307.4,86.2,306.2z M77.5,329.6c0.5-1.1-0.1-2.4-1.2-2.8c-1.2-0.5-2.4,0.1-2.8,1.3c-0.4,1.1,0.2,2.3,1.3,2.8
		C75.8,331.3,77,330.8,77.5,329.6z M90.4,310.8c0.7-0.6,0.8-1.6,0.3-2.3c-0.6-0.7-1.6-0.8-2.3-0.3c-0.7,0.5-0.8,1.5-0.2,2.2
		C88.7,311.2,89.7,311.4,90.4,310.8z M71.2,325.9c0.7-0.6,0.8-1.6,0.3-2.3c-0.6-0.7-1.6-0.8-2.3-0.3c-0.7,0.5-0.8,1.5-0.2,2.2
		C69.4,326.3,70.5,326.5,71.2,325.9z M91.9,315.8c0.6-0.1,1-0.7,0.9-1.4c-0.1-0.6-0.8-1.1-1.4-0.9c-0.6,0.1-1,0.7-0.9,1.3
		C90.6,315.5,91.2,316,91.9,315.8z M68.3,320.8c0.6-0.1,1-0.7,0.9-1.4c-0.1-0.6-0.7-1.1-1.4-0.9c-0.7,0.1-1,0.7-0.9,1.3
		C67.1,320.4,67.7,320.9,68.3,320.8z"/>
	<path fill="#FFFFFF" d="M168.1,307.8h-7.6v22c0,0.4-0.3,0.8-0.8,0.8h-3.8c-0.4,0-0.8-0.3-0.8-0.8v-22h-7.6c-0.4,0-0.8-0.3-0.8-0.7
		v-3c0-0.4,0.3-0.7,0.8-0.7h20.7c0.4,0,0.8,0.3,0.8,0.7v3C168.9,307.6,168.5,307.8,168.1,307.8z M196.6,329.9v-25.8
		c0-0.4-0.4-0.7-0.8-0.7H192c-0.4,0-0.8,0.3-0.8,0.7v10H179v-10c0-0.4-0.3-0.7-0.8-0.7h-3.7c-0.4,0-0.8,0.3-0.8,0.7v25.8
		c0,0.4,0.3,0.8,0.8,0.8h3.8c0.4,0,0.8-0.3,0.8-0.8v-11.1h12.2v11.1c0,0.4,0.3,0.8,0.8,0.8h3.8C196.2,330.8,196.6,330.3,196.6,329.9
		z M227,315.1v3.9c0,8.4-5.9,12-12.2,12s-12.2-3.5-12.2-12v-3.9c0-8.4,5.9-12,12.2-12C221.2,303.1,227,306.6,227,315.1z
		 M221.6,315.1c0-5.1-3.1-7.3-6.8-7.3c-3.8,0-6.8,2.3-6.8,7.3v3.9c0,5.1,3.1,7.3,6.8,7.3c3.8,0,6.8-2.3,6.8-7.3V315.1z M260.8,330.1
		v-25.2c0-0.8-0.7-1.5-1.5-1.5h-3.1c-0.6,0-1.2,0.4-1.4,0.9l-7.4,15c-0.2,0.3-0.3,0.5-0.4,0.5c-0.2,0-0.2-0.2-0.4-0.5l-7.4-15
		c-0.3-0.5-0.8-0.9-1.4-0.9h-3.3c-0.8,0-1.5,0.7-1.5,1.5v25.2c0,0.4,0.3,0.6,0.7,0.6h3.9c0.3,0,0.6-0.4,0.6-0.8v-16.6
		c0-0.3,0-0.4,0.1-0.4c0,0,0.1,0.1,0.2,0.2l6.2,13.7c0.2,0.4,0.7,0.7,1.2,0.7h2c0.5,0,1-0.2,1.2-0.7l6.2-13.7
		c0.1-0.1,0.2-0.2,0.2-0.2c0.1,0,0.1,0.1,0.1,0.4V330c0,0.4,0.3,0.8,0.6,0.8h3.9C260.4,330.8,260.8,330.5,260.8,330.1z M345.9,329.1
		v-25c0-0.4-0.3-0.7-0.7-0.7h-3.3c-0.4,0-0.7,0.3-0.7,0.7V323c0,0.2-0.1,0.3-0.2,0.3s-0.2-0.1-0.3-0.3l-10.8-18.5
		c-0.5-1-0.9-1.2-1.7-1.2h-4.1c-0.8,0-1.5,0.7-1.5,1.5v25c0,0.4,0.3,0.8,0.8,0.8h3.3c0.4,0,0.7-0.3,0.7-0.8v-18.1
		c0-0.2,0.1-0.3,0.2-0.3s0.2,0.1,0.3,0.3l10.4,17.4c0.6,1.4,1.4,1.4,2.3,1.4h3.9C345.2,330.8,345.9,330,345.9,329.1z M287.3,323
		c0-3.7-2.1-5.6-5.3-6.9c-2.6-1-4.8-1.9-6.5-2.6s-3.1-1.8-3.1-3.1c0-1.7,2.1-2.7,5-2.7c3.3,0,6,0.5,8.5,0.7c0,0,0,0,0.1,0
		c0.4,0,0.6-0.3,0.6-0.7v-2.8c0-0.4-0.3-0.7-0.7-0.7c-1.3-0.3-4.6-1-8.3-1c-7.1,0-10.5,3.1-10.5,7.3c0,2.7,1.2,5.3,4.5,6.7
		c3.4,1.4,10.2,3,10.2,5.9c0,2.2-1,3.4-4.5,3.4s-7.1-0.5-8.7-0.7c0,0,0,0-0.1,0c-0.4,0-0.7,0.3-0.7,0.7v2.8c0,0.4,0.3,0.7,0.7,0.8
		c1.8,0.4,5.3,1,8.7,1C284.9,331,287.3,326.8,287.3,323z M316.5,315.1v3.9c0,8.4-5.9,12-12.2,12c-6.3,0-12.2-3.5-12.2-12v-3.9
		c0-8.4,5.9-12,12.2-12C310.7,303.1,316.5,306.6,316.5,315.1z M311.2,315.1c0-5.1-3.1-7.3-6.8-7.3s-6.8,2.3-6.8,7.3v3.9
		c0,5.1,3.1,7.3,6.8,7.3s6.8-2.3,6.8-7.3V315.1z M386.2,330.2c0,0.3-0.2,0.5-0.5,0.5H381c-0.4,0-0.6-0.4-0.8-0.8l-5.5-9.3h-0.9
		c-1,0-4.1-0.1-5-0.2v9.5c0,0.4-0.3,0.8-0.7,0.8h-3.8c-0.4,0-0.8-0.3-0.8-0.8v-25.2c0-0.8,0.5-1,1.2-1.1c2-0.3,6.3-0.5,9.1-0.5
		c5.9,0,11.4,2.1,11.4,8.7v0.3c0,4.1-2,6.3-5.2,7.5l6,10.3C386.2,330,386.2,330.1,386.2,330.2z M380,311.8c0-2.9-2.2-4.1-6.1-4.1
		c-0.8,0-4.3,0.1-5,0.2v8.3c0.6,0,4.3,0.1,5,0.1c3.9,0,6.1-0.8,6.1-4.1V311.8z M396.4,318.8h12.3c0.4,0,0.8-0.3,0.8-0.8v-2.8
		c0-0.4-0.3-0.8-0.8-0.8h-12.3V311c0-3.2,0.1-3.3,3-3.3h9.7c0.4,0,0.8-0.4,0.8-0.8v-2.5c0-0.5-0.2-0.7-0.8-0.8
		c-1.2-0.2-3.7-0.5-8.3-0.5c-6.4,0-9.8,0-9.8,7.9v12.1c0,7.9,3.4,7.9,9.8,7.9c4.6,0,7.1-0.3,8.3-0.5c0.6-0.1,0.8-0.3,0.8-0.8v-2.5
		c0-0.4-0.3-0.8-0.8-0.8h-9.6c-2.9,0-3-0.1-3-3.3v-4.3L396.4,318.8L396.4,318.8z M438.7,320.1v-16c0-0.4-0.3-0.7-0.8-0.7h-3.8
		c-0.4,0-0.8,0.3-0.8,0.7v16c0,4.4-2,6.5-6.2,6.5c-4.1,0-6.2-2.1-6.2-6.5v-16c0-0.4-0.3-0.7-0.8-0.7h-3.8c-0.4,0-0.8,0.3-0.8,0.7v16
		c0,8.2,5.3,10.9,11.5,10.9C433.4,331,438.7,328.3,438.7,320.1z M464.7,307.2v-3c0-0.4-0.3-0.7-0.8-0.7h-20.7
		c-0.4,0-0.8,0.3-0.8,0.7v3c0,0.4,0.3,0.7,0.8,0.7h7.7v22c0,0.4,0.3,0.8,0.8,0.8h3.8c0.4,0,0.8-0.3,0.8-0.8v-22h7.7
		C464.3,307.8,464.7,307.6,464.7,307.2z M516.5,330.2c0,0.3-0.2,0.5-0.5,0.5h-4.7c-0.4,0-0.6-0.4-0.8-0.8l-5.5-9.3h-0.9
		c-1,0-4.1-0.1-5-0.2v9.5c0,0.4-0.3,0.8-0.7,0.8h-3.8c-0.4,0-0.8-0.3-0.8-0.8v-25.2c0-0.8,0.5-1,1.2-1.1c2-0.3,6.3-0.5,9.1-0.5
		c5.9,0,11.4,2.1,11.4,8.7v0.3c0,4.1-2,6.3-5.2,7.5l6,10.3C516.5,330,516.5,330.1,516.5,330.2z M510.3,311.8c0-2.9-2.2-4.1-6.1-4.1
		c-0.8,0-4.3,0.1-5,0.2v8.3c0.6,0,4.3,0.1,5,0.1c4,0,6.1-0.8,6.1-4.1V311.8z M540.8,323c0-3.7-2.1-5.6-5.3-6.9
		c-2.6-1-4.8-1.9-6.5-2.6s-3.1-1.8-3.1-3.1c0-1.7,2.1-2.7,5-2.7c3.3,0,6,0.5,8.5,0.7h0.1c0.4,0,0.7-0.3,0.7-0.7v-2.8
		c0-0.4-0.3-0.7-0.7-0.7c-1.3-0.3-4.7-1-8.3-1c-7.1,0-10.5,3.1-10.5,7.3c0,2.7,1.2,5.3,4.5,6.7c3.4,1.4,10.2,3,10.2,5.9
		c0,2.2-1,3.4-4.5,3.4s-7.1-0.5-8.7-0.7c0,0,0,0-0.1,0c-0.4,0-0.7,0.3-0.7,0.7v2.8c0,0.4,0.4,0.7,0.7,0.8c1.8,0.4,5.3,1,8.7,1
		C538.4,331,540.8,326.8,540.8,323z M473.9,318.8h12.3c0.4,0,0.8-0.3,0.8-0.8v-2.8c0-0.4-0.3-0.8-0.8-0.8h-12.3V311
		c0-3.2,0.1-3.3,3-3.3h9.7c0.4,0,0.8-0.4,0.8-0.8v-2.5c0-0.5-0.2-0.7-0.8-0.8c-1.2-0.2-3.7-0.5-8.3-0.5c-6.4,0-9.8,0-9.8,7.9v12.1
		c0,7.9,3.4,7.9,9.8,7.9c4.6,0,7.1-0.3,8.3-0.5c0.6-0.1,0.8-0.3,0.8-0.8v-2.5c0-0.4-0.4-0.8-0.8-0.8h-9.7c-2.9,0-3-0.1-3-3.3V318.8z
		 M544.8,308.8c0,3,2.2,5.6,5.6,5.6c3.4,0,5.6-2.6,5.6-5.6s-2.2-5.5-5.6-5.5C547,303.1,544.8,305.6,544.8,308.8z M545.6,308.8
		c0-2.7,1.9-4.8,4.8-4.8c2.9,0,4.8,2.1,4.8,4.8c0,2.7-1.9,4.9-4.8,4.9C547.5,313.5,545.6,311.3,545.6,308.8z M553,311.1l-1.2-2.1
		c0.6-0.2,1-0.7,1-1.5v-0.1c0-1.3-1.1-1.8-2.3-1.8c-0.6,0-1.4,0-1.8,0.1c-0.2,0-0.2,0.1-0.2,0.2v5.1c0,0.1,0.1,0.2,0.2,0.2h0.8
		c0.1,0,0.1-0.1,0.1-0.2v-1.9c0.2,0,0.8,0,1,0h0.2l1.1,1.9c0,0.1,0.1,0.2,0.2,0.2h0.9C553,311.3,553,311.3,553,311.1
		C553,311.2,553,311.2,553,311.1z M551.7,307.6c0,0.7-0.4,0.8-1.2,0.8c-0.1,0-0.9,0-1,0v-1.7c0.1,0,0.8,0,1,0
		C551.3,306.8,551.7,306.9,551.7,307.6L551.7,307.6z"/>
</g>
</svg>
