<?xml version="1.0" encoding="utf-8"?>
<!-- Generator: Adobe Illustrator 18.0.0, SVG Export Plug-In . SVG Version: 6.00 Build 0)  -->
<!DOCTYPE svg PUBLIC "-//W3C//DTD SVG 1.1//EN" "http://www.w3.org/Graphics/SVG/1.1/DTD/svg11.dtd">
<svg version="1.1" id="Layer_1" xmlns="http://www.w3.org/2000/svg" xmlns:xlink="http://www.w3.org/1999/xlink" x="0px" y="0px"
	 viewBox="230.29998779296875 270.0999755859375 329.0999755859375 72.10003662109375" xml:space="preserve">
<path fill="#ff8000" d="M239.4,273.1v11h-3v-11h-3.8v-2.6h10.5v2.6H239.4z M246,270.5h3v5.4h5.4v-5.4h3V284h-3v-5.5H249v5.5h-3
	V270.5z M266.4,270.3c4.4,0,6.5,3,6.5,7c0,4-2.1,7-6.5,7c-4.4,0-6.5-3-6.5-7C259.9,273.3,262,270.3,266.4,270.3z M269.9,277.3
	c0-2.6-1-4.5-3.5-4.5c-2.5,0-3.5,1.8-3.5,4.5c0,2.6,1,4.5,3.5,4.5C268.9,281.8,269.9,279.9,269.9,277.3z M275.5,270.5h3l4.2,8.9
	l4.2-8.9h3V284H287v-7.7l-2.9,6h-2.9l-2.9-6v7.7h-2.9V270.5z M297.6,284.3c-1.6,0-3.5-0.4-4.9-1l0.6-2.4c1.4,0.5,2.9,0.9,4.2,0.9
	c1.5,0,2.4-0.4,2.4-1.5c0-1.1-0.7-1.4-2.7-1.8c-3-0.6-4.6-1.6-4.6-4.2c0-3.2,2.1-4.2,5.1-4.2c1.8,0,3.3,0.3,4.6,1l-0.5,2.4
	c-1.2-0.5-2.7-0.9-4.1-0.9c-1.5,0-2.2,0.3-2.2,1.4c0,1,0.7,1.2,2.8,1.7c2.9,0.7,4.5,1.5,4.5,4.2C302.9,282.7,301,284.3,297.6,284.3z
	 M311.3,270.3c4.4,0,6.5,3,6.5,7c0,4-2.1,7-6.5,7c-4.4,0-6.5-3-6.5-7C304.9,273.3,307,270.3,311.3,270.3z M314.8,277.3
	c0-2.6-1-4.5-3.5-4.5c-2.5,0-3.5,1.8-3.5,4.5c0,2.6,1,4.5,3.5,4.5C313.8,281.8,314.8,279.9,314.8,277.3z M320.3,270.5h2.9l6,8.6
	v-8.6h2.9V284h-2.9l-6-8.6v8.6h-2.9V270.5z M350.1,278.9l3.5,5.1h-3.7l-3-4.8h-2.2v4.8h-3v-13.5h6.5c2.8,0,4.6,1.7,4.6,4.4
	C352.8,276.8,351.7,278.3,350.1,278.9z M347.8,272.9h-3v4h3c1.2,0,2.1-0.7,2.1-2C349.8,273.6,349,272.9,347.8,272.9z M355.8,270.5
	h9.3v2.6h-6.3v2.8h5.9v2.6h-5.9v3.1h6.3v2.6h-9.3V270.5z M379.4,278.9c0,2.9-1.9,5.4-5.7,5.4c-3.8,0-5.7-2.5-5.7-5.4v-8.4h3v8.5
	c0,1.8,1.1,2.7,2.7,2.7c1.7,0,2.7-1,2.7-2.7v-8.5h3V278.9z M388.6,273.1v11h-3v-11h-3.8v-2.6h10.5v2.6H388.6z M395,270.5h9.3v2.6
	H398v2.8h5.9v2.6H398v3.1h6.3v2.6H395V270.5z M415.4,278.9l3.6,5.1h-3.7l-3-4.8h-2.2v4.8h-3v-13.5h6.4c2.8,0,4.6,1.7,4.6,4.4
	C418.1,276.8,417.1,278.3,415.4,278.9z M413.1,272.9h-3v4h3c1.2,0,2.1-0.7,2.1-2C415.2,273.6,414.3,272.9,413.1,272.9z M425.5,284.3
	c-1.6,0-3.4-0.4-4.9-1l0.6-2.4c1.4,0.5,2.9,0.9,4.2,0.9c1.5,0,2.4-0.4,2.4-1.5c0-1.1-0.7-1.4-2.7-1.8c-3-0.6-4.6-1.6-4.6-4.2
	c0-3.2,2.1-4.2,5.1-4.2c1.8,0,3.3,0.3,4.6,1l-0.5,2.4c-1.2-0.5-2.7-0.9-4.1-0.9c-1.5,0-2.2,0.3-2.2,1.4c0,1,0.7,1.2,2.8,1.7
	c2.9,0.7,4.5,1.5,4.5,4.2C430.9,282.7,428.9,284.3,425.5,284.3z M249.4,300.1c12.9,0,19.1,9.1,19.1,21c0,11.9-6.2,21-19.1,21
	c-12.9,0-19.1-9.1-19.1-21C230.3,309.2,236.5,300.1,249.4,300.1z M260.9,321.1c0-8.5-3.5-14.5-11.5-14.5c-8,0-11.5,6-11.5,14.5
	c0,8.5,3.5,14.5,11.5,14.5C257.3,335.6,260.9,329.7,260.9,321.1z M273.3,300.8h7.6l19.6,28v-28h7.4v40.6h-7.6l-19.6-28v28h-7.4
	V300.8z M313.7,300.8H341v6.6h-19.7v9.9h18.4v6.6h-18.4v11H341v6.6h-27.3V300.8z M360.2,342.2c-4.8,0-10.3-1.2-14.5-3l1.6-6.2
	c4.1,1.7,8.8,2.9,12.8,2.9c4.9,0,8-1.4,8-5.2c0-3.7-2.4-4.9-8.9-6.3c-9-1.9-13.6-5.1-13.6-12.2c0-9,6.1-12.1,15.1-12.1
	c5.4,0,9.7,1,13.6,2.8l-1.4,6.1c-3.5-1.5-7.9-2.7-12.1-2.7c-5,0-7.6,1.2-7.6,5.1c0,3.4,2.4,4.4,9,6c8.7,2.1,13.6,4.6,13.6,12.4
	C375.8,337.6,370,342.2,360.2,342.2z M397.8,300.1c12.9,0,19.1,9.1,19.1,21c0,11.9-6.2,21-19.1,21c-12.9,0-19.1-9.1-19.1-21
	C378.7,309.2,384.9,300.1,397.8,300.1z M409.2,321.1c0-8.5-3.5-14.5-11.5-14.5c-8,0-11.5,6-11.5,14.5c0,8.5,3.5,14.5,11.5,14.5
	C405.7,335.6,409.2,329.7,409.2,321.1z M454.3,326.4c0,8.5-5.5,15.8-16.7,15.8c-11.3,0-16.7-7.3-16.7-15.8v-25.5h7.6v26
	c0,5.7,3.5,8.8,9.1,8.8c5.5,0,9-3.2,9-8.8v-26h7.7V326.4z M483.7,325.5l10.9,16H485l-9.7-15.2h-7.6v15.2h-7.6v-40.6h18.6
	c8.5,0,13.4,5.1,13.4,12.7C492.2,319.1,488.9,323.6,483.7,325.5z M477.6,307h-9.8v13.2h9.8c4.2,0,6.9-2.4,6.9-6.7
	C484.6,309.4,481.8,307,477.6,307z M515.5,300.1c5.1,0,9.1,1.1,11.6,2.3l-1.2,6c-2.5-1-5.9-1.7-8.8-1.7c-9.1,0-14.2,4.9-14.2,14.4
	c0,9.5,5.1,14.4,14.2,14.4c2.9,0,6.3-0.7,8.8-1.7l1.2,6c-2.4,1.2-6.5,2.3-11.6,2.3c-12.2,0-20.2-8-20.2-21
	C495.3,308.1,503.3,300.1,515.5,300.1z M532.1,300.8h27.3v6.6h-19.7v9.9h18.4v6.6h-18.4v11h19.7v6.6h-27.3V300.8z"/>
</svg>
